<?xml version="1.0" encoding="UTF-8" standalone="no"?>
<!-- Created with Inkscape (http://www.inkscape.org/) -->

<svg
   width="16"
   height="16"
   viewBox="0 0 4.2333332 4.2333333"
   version="1.1"
   id="svg2572"
   sodipodi:docname="rustrover-symbolic.svg"
   inkscape:version="1.3.2 (091e20ef0f, 2023-11-25)"
   xmlns:inkscape="http://www.inkscape.org/namespaces/inkscape"
   xmlns:sodipodi="http://sodipodi.sourceforge.net/DTD/sodipodi-0.dtd"
   xmlns="http://www.w3.org/2000/svg"
   xmlns:svg="http://www.w3.org/2000/svg">
  <sodipodi:namedview
     id="namedview1"
     pagecolor="#ffffff"
     bordercolor="#000000"
     borderopacity="0.25"
     inkscape:showpageshadow="2"
     inkscape:pageopacity="0.0"
     inkscape:pagecheckerboard="0"
     inkscape:deskcolor="#d1d1d1"
     inkscape:zoom="45.254834"
     inkscape:cx="9.3802134"
     inkscape:cy="7.5351066"
     inkscape:window-width="1920"
     inkscape:window-height="1011"
     inkscape:window-x="0"
     inkscape:window-y="0"
     inkscape:window-maximized="1"
     inkscape:current-layer="svg2572" />
  <defs
     id="defs2569" />
  <g
     id="g1"
     transform="matrix(0.21621621,0,0,0.21621621,0.85810808,1.8307807)">
    <path
       id="rect1711-61-3"
       style="display:inline;fill:#000000;fill-opacity:0.980392;stroke:none;stroke-width:0.0466818;stroke-linecap:butt;stroke-linejoin:miter;stroke-miterlimit:4;stroke-dasharray:none;stroke-dashoffset:0;stroke-opacity:1;marker:none;marker-start:none;marker-mid:none;marker-end:none;paint-order:normal;enable-background:new"
       d="M -2.4630279 -7.9367732 C -3.2974008 -7.9367732 -3.96875 -7.275794 -3.96875 -6.4549515 L -3.96875 9.1017864 C -3.96875 9.9226289 -3.2974008 10.583608 -2.4630279 10.583608 L 14.104695 10.583608 C 14.939068 10.583608 15.610417 9.9226289 15.610417 9.1017864 L 15.610417 -6.4549515 C 15.610417 -7.275794 14.939068 -7.9367732 14.104695 -7.9367732 L -2.4630279 -7.9367732 z M -1.1915293 -5.5921489 L 1.8246949 -5.5921489 C 2.3168315 -5.5921489 2.7500076 -5.5041427 3.1248739 -5.3220749 C 3.4997395 -5.1400063 3.7891642 -4.8834499 3.9900666 -4.5572637 C 4.1941557 -4.2310309 4.2959911 -3.8614253 4.2959911 -3.4219971 C 4.2959911 -2.9825682 4.1902654 -2.6002617 3.9828965 -2.2676102 C 3.778527 -1.9352393 3.4873661 -1.6766648 3.1057537 -1.4884587 C 3.0030531 -1.4408552 2.885141 -1.4164211 2.7735388 -1.3809072 L 4.4465633 1.4345541 L 2.8739203 1.4345541 L 1.3610281 -1.2183848 L 0.17796077 -1.2183848 L 0.17796077 1.4345541 L -1.1915293 1.4345541 L -1.1915293 -5.5921489 z M 5.5722698 -5.5921489 L 8.590884 -5.5921489 C 9.0830215 -5.5921489 9.5161972 -5.5041427 9.8910631 -5.3220749 C 10.265976 -5.1400063 10.55301 -4.8834499 10.753866 -4.5572637 C 10.958002 -4.2310309 11.05979 -3.8614253 11.05979 -3.4219971 C 11.05979 -2.9825682 10.956407 -2.6002617 10.749086 -2.2676102 C 10.54495 -1.9352393 10.251165 -1.6766648 9.8695528 -1.4884587 C 9.7668054 -1.4408552 9.6489399 -1.4164211 9.5373379 -1.3809072 L 11.210362 1.4345541 L 9.6401094 1.4345541 L 8.1272172 -1.2183848 L 6.9441499 -1.2183848 L 6.9441499 1.4345541 L 5.5722698 1.4345541 L 5.5722698 -5.5921489 z M 0.17796077 -4.4497121 L 0.17796077 -2.3608215 L 1.7338736 -2.3608215 C 1.9648561 -2.3608215 2.1677757 -2.3971617 2.3385524 -2.4851033 C 2.512843 -2.5727643 2.6462324 -2.6939636 2.7400783 -2.8507787 C 2.8339701 -3.0140116 2.8787003 -3.1943846 2.8787003 -3.4076569 C 2.8787003 -3.6208816 2.8336892 -3.8029863 2.7400783 -3.9597549 C 2.6462322 -4.1168503 2.512562 -4.2377694 2.3385524 -4.3254303 C 2.1677757 -4.4071871 1.9648561 -4.4497121 1.7338736 -4.4497121 L 0.17796077 -4.4497121 z M 6.9441499 -4.4497121 L 6.9441499 -2.3608215 L 8.5000627 -2.3608215 C 8.7310919 -2.3608215 8.9316214 -2.3971617 9.1023515 -2.4851033 C 9.2763609 -2.5727643 9.4100325 -2.6939636 9.5038774 -2.8507787 C 9.5977224 -3.0140116 9.6448895 -3.1943846 9.6448895 -3.4076569 C 9.6448895 -3.6208816 9.5974893 -3.8029863 9.5038774 -3.9597549 C 9.4103134 -4.1168503 9.2763609 -4.2377694 9.1023515 -4.3254303 C 8.9316214 -4.4071871 8.7310919 -4.4497121 8.5000627 -4.4497121 L 6.9441499 -4.4497121 z M -1.1915293 7.3379406 L 5.8256135 7.3379406 L 5.8256135 8.5329581 L -1.1915293 8.5329581 L -1.1915293 7.3379406 z " />
  </g>
</svg>
