<?xml version="1.0" encoding="UTF-8" standalone="no"?>
<svg
   height="128px"
   viewBox="0 0 128 128"
   width="128px"
   version="1.1"
   id="svg8"
   sodipodi:docname="logo.svg"
   inkscape:version="1.4 (e7c3feb100, 2024-10-09)"
   xmlns:inkscape="http://www.inkscape.org/namespaces/inkscape"
   xmlns:sodipodi="http://sodipodi.sourceforge.net/DTD/sodipodi-0.dtd"
   xmlns:xlink="http://www.w3.org/1999/xlink"
   xmlns="http://www.w3.org/2000/svg"
   xmlns:svg="http://www.w3.org/2000/svg">
  <defs
     id="defs8">
    <linearGradient
       id="linearGradient22"
       inkscape:collect="always">
      <stop
         style="stop-color:#438de6;stop-opacity:1;"
         offset="0"
         id="stop23" />
      <stop
         style="stop-color:#ed5b00;stop-opacity:1;"
         offset="0.2"
         id="stop25" />
      <stop
         style="stop-color:#9141ac;stop-opacity:1;"
         offset="0.40000001"
         id="stop26" />
      <stop
         style="stop-color:#6f8396;stop-opacity:1;"
         offset="0.60000002"
         id="stop27" />
      <stop
         style="stop-color:#2190a4;stop-opacity:1;"
         offset="0.80000001"
         id="stop28" />
      <stop
         style="stop-color:#c88800;stop-opacity:1;"
         offset="1"
         id="stop24" />
    </linearGradient>
    <linearGradient
       id="linearGradient17"
       inkscape:collect="always">
      <stop
         style="stop-color:#a4caee;stop-opacity:1;"
         offset="0"
         id="stop17" />
      <stop
         style="stop-color:#f5ab7c;stop-opacity:1;"
         offset="0.19895886"
         id="stop19" />
      <stop
         style="stop-color:#c69ed4;stop-opacity:1;"
         offset="0.40000001"
         id="stop20" />
      <stop
         style="stop-color:#b5bfc9;stop-opacity:1;"
         offset="0.60000002"
         id="stop21" />
      <stop
         style="stop-color:#8dc6d0;stop-opacity:1;"
         offset="0.80000001"
         id="stop22" />
      <stop
         style="stop-color:#e2c27c;stop-opacity:1;"
         offset="1"
         id="stop18" />
    </linearGradient>
    <linearGradient
       inkscape:collect="always"
       xlink:href="#linearGradient17"
       id="linearGradient18"
       x1="12"
       y1="73.988281"
       x2="116"
       y2="73.988281"
       gradientUnits="userSpaceOnUse" />
    <linearGradient
       inkscape:collect="always"
       xlink:href="#linearGradient22"
       id="linearGradient24"
       x1="12"
       y1="65.015625"
       x2="116"
       y2="65.015625"
       gradientUnits="userSpaceOnUse" />
  </defs>
  <sodipodi:namedview
     id="namedview8"
     pagecolor="#ffffff"
     bordercolor="#000000"
     borderopacity="0.25"
     inkscape:showpageshadow="2"
     inkscape:pageopacity="0.0"
     inkscape:pagecheckerboard="0"
     inkscape:deskcolor="#d1d1d1"
     inkscape:zoom="5.6568543"
     inkscape:cx="42.338018"
     inkscape:cy="72.831998"
     inkscape:window-width="1920"
     inkscape:window-height="1011"
     inkscape:window-x="0"
     inkscape:window-y="0"
     inkscape:window-maximized="1"
     inkscape:current-layer="svg8" />
  <linearGradient
     id="a"
     gradientTransform="matrix(0.45451 0 0 0.455522 -1210.292114 616.172607)"
     gradientUnits="userSpaceOnUse"
     x1="2689.251953"
     x2="2918.069824"
     y1="-1106.802979"
     y2="-1106.802979">
    <stop
       offset="0"
       stop-color="#62a0ea"
       id="stop1" />
    <stop
       offset="0.0576991"
       stop-color="#afd4ff"
       id="stop2"
       style="stop-color:#f7b68e;stop-opacity:1;" />
    <stop
       offset="0.122204"
       stop-color="#62a0ea"
       id="stop3"
       style="stop-color:#a05bb7;stop-opacity:1;" />
    <stop
       offset="0.87330598"
       stop-color="#62a0ea"
       id="stop4"
       style="stop-color:#8394a4;stop-opacity:1;" />
    <stop
       offset="0.95599699"
       stop-color="#c0d5ea"
       id="stop5"
       style="stop-color:#9dced6;stop-opacity:1;" />
    <stop
       offset="1"
       stop-color="#62a0ea"
       id="stop6"
       style="stop-color:#cf9823;stop-opacity:1;" />
  </linearGradient>
  <path
     d="m 21.976562 12 c -5.527343 0 -9.976562 4.460938 -9.976562 10 v 86.03125 c 0 5.542969 4.449219 10 9.976562 10 h 84.042969 c 5.53125 0 9.980469 -4.457031 9.980469 -10 v -72.085938 c 0 -6.628906 -5.359375 -12 -11.972656 -12 h -46.027344 c -2.453125 0 -4.695312 -1.386718 -5.796875 -3.582031 l -1.503906 -2.992187 c -1.65625 -3.292969 -5.019531 -5.371094 -8.699219 -5.371094 z m 0 0"
     fill="#438de6"
     id="path6"
     style="fill:url(#linearGradient24)" />
  <path
     d="m 65.976562 36 c -2.746093 0 -5.226562 1.101562 -7.027343 2.890625 c -2.273438 2.253906 -5.382813 5.109375 -8.632813 5.109375 h -28.339844 c -5.527343 0 -9.976562 4.460938 -9.976562 10 v 54.03125 c 0 5.542969 4.449219 10 9.976562 10 h 84.042969 c 5.53125 0 9.980469 -4.457031 9.980469 -10 v -62.03125 c 0 -5.539062 -4.449219 -10 -9.980469 -10 z m 0 0"
     fill="url(#a)"
     id="path7" />
  <path
     d="m 65.976562 32 c -2.746093 0 -5.226562 1.101562 -7.027343 2.890625 c -2.273438 2.253906 -5.382813 5.109375 -8.632813 5.109375 h -28.339844 c -5.527343 0 -9.976562 4.460938 -9.976562 10 v 55.976562 c 0 5.539063 4.449219 10 9.976562 10 h 84.042969 c 5.53125 0 9.980469 -4.460937 9.980469 -10 v -63.976562 c 0 -5.539062 -4.449219 -10 -9.980469 -10 z m 0 0"
     fill="#a4caee"
     id="path8"
     style="fill:url(#linearGradient18)" />
</svg>
